<svg width="28" height="27" viewBox="0 0 28 27" fill="none" xmlns="http://www.w3.org/2000/svg">
<path d="M27.4401 17.1999V17.8399C27.4401 19.028 26.9681 20.1676 26.1279 21.0077C25.2877 21.8479 24.1482 22.3199 22.9601 22.3199H5.04006C3.85189 22.3199 2.71238 21.8479 1.87222 21.0077C1.03206 20.1676 0.560059 19.028 0.560059 17.8399V17.1999C1.15526 18.7295 2.64774 19.5832 5.04006 19.7599H22.9601C25.3025 19.6152 26.7949 18.7615 27.4401 17.1999ZM27.4401 21.0399V21.6799C27.4401 22.868 26.9681 24.0076 26.1279 24.8477C25.2877 25.6879 24.1482 26.1599 22.9601 26.1599H5.04006C3.85189 26.1599 2.71238 25.6879 1.87222 24.8477C1.03206 24.0076 0.560059 22.868 0.560059 21.6799V21.0399C1.15526 22.5695 2.64774 23.4232 5.04006 23.5999H22.9601C25.3025 23.4552 26.7949 22.6015 27.4401 21.0399ZM5.04006 0.559875H22.9601C24.1482 0.559875 25.2877 1.03187 26.1279 1.87204C26.9681 2.7122 27.4401 3.85171 27.4401 5.03988V13.9999C27.4401 15.188 26.9681 16.3275 26.1279 17.1677C25.2877 18.0079 24.1482 18.4799 22.9601 18.4799H5.04006C3.85189 18.4799 2.71238 18.0079 1.87222 17.1677C1.03206 16.3275 0.560059 15.188 0.560059 13.9999V5.03988C0.560059 3.85171 1.03206 2.7122 1.87222 1.87204C2.71238 1.03187 3.85189 0.559875 5.04006 0.559875ZM14.6401 5.67988V5.03988C14.6401 4.87014 14.5726 4.70735 14.4526 4.58733C14.3326 4.4673 14.1698 4.39988 14.0001 4.39988C13.8303 4.39988 13.6675 4.4673 13.5475 4.58733C13.4275 4.70735 13.3601 4.87014 13.3601 5.03988V5.67988H12.738C12.2288 5.67988 11.7404 5.88216 11.3803 6.24223C11.0203 6.6023 10.818 7.09066 10.818 7.59988V8.23988C10.818 8.74909 11.0203 9.23745 11.3803 9.59752C11.7404 9.95759 12.2288 10.1599 12.738 10.1599H15.2801C15.4498 10.1599 15.6126 10.2273 15.7326 10.3473C15.8526 10.4674 15.9201 10.6301 15.9201 10.7999V11.4399C15.9201 11.6096 15.8526 11.7724 15.7326 11.8924C15.6126 12.0124 15.4498 12.0799 15.2801 12.0799H12.0954C12.0818 11.9171 12.0064 11.7657 11.8847 11.6567C11.763 11.5477 11.6043 11.4893 11.441 11.4936C11.2777 11.4979 11.1222 11.5644 11.0064 11.6796C10.8905 11.7948 10.8231 11.9499 10.818 12.1132L10.8001 12.7007C10.7975 12.7863 10.8121 12.8716 10.8432 12.9515C10.8742 13.0314 10.9209 13.1042 10.9806 13.1657C11.0403 13.2272 11.1117 13.276 11.1906 13.3094C11.2696 13.3427 11.3544 13.3599 11.4401 13.3599H13.3601V13.9884C13.3601 14.1581 13.4275 14.3209 13.5475 14.4409C13.6675 14.5609 13.8303 14.6284 14.0001 14.6284C14.1698 14.6284 14.3326 14.5609 14.4526 14.4409C14.5726 14.3209 14.6401 14.1581 14.6401 13.9884V13.3599H15.2801C15.7893 13.3599 16.2776 13.1576 16.6377 12.7975C16.9978 12.4375 17.2001 11.9491 17.2001 11.4399V10.7999C17.2001 10.2907 16.9978 9.8023 16.6377 9.44223C16.2776 9.08216 15.7893 8.87988 15.2801 8.87988H12.738C12.5682 8.87988 12.4055 8.81245 12.2854 8.69242C12.1654 8.5724 12.098 8.40961 12.098 8.23988V7.59988C12.098 7.43014 12.1654 7.26735 12.2854 7.14733C12.4055 7.0273 12.5682 6.95988 12.738 6.95988H15.938C15.9749 7.11251 16.0666 7.24625 16.1956 7.33567C16.3247 7.42508 16.4822 7.46392 16.638 7.44479C16.7939 7.42566 16.9373 7.34991 17.0409 7.23194C17.1445 7.11397 17.2012 6.96202 17.2001 6.805V6.31988C17.2001 6.15014 17.1326 5.98735 17.0126 5.86733C16.8926 5.7473 16.7298 5.67988 16.5601 5.67988H14.6401Z" fill="#4C934C"/>
</svg>
