<svg width="32" height="32" viewBox="0 0 32 32" fill="none" xmlns="http://www.w3.org/2000/svg">
<path d="M12 16.56L18.44 7.54666C18.4645 7.51091 18.4973 7.48167 18.5357 7.46146C18.574 7.44125 18.6167 7.43069 18.66 7.43069C18.7033 7.43069 18.746 7.44125 18.7843 7.46146C18.8227 7.48167 18.8555 7.51091 18.88 7.54666L29.0667 24.1467C29.0933 24.1871 29.1085 24.2341 29.1104 24.2826C29.1124 24.331 29.1011 24.3791 29.0778 24.4216C29.0545 24.4641 29.02 24.4994 28.9781 24.5238C28.9362 24.5482 28.8885 24.5607 28.84 24.56H17.3333" stroke="black" stroke-width="1.5" stroke-linecap="round" stroke-linejoin="round"/>
<path fill-rule="evenodd" clip-rule="evenodd" d="M7.78671 16.8667L2.93338 24.1467C2.90671 24.1871 2.89158 24.2341 2.88962 24.2826C2.88766 24.331 2.89894 24.3791 2.92225 24.4216C2.94556 24.4641 2.98002 24.4994 3.02192 24.5238C3.06382 24.5482 3.11157 24.5607 3.16005 24.56H13.5467C13.5951 24.5576 13.6419 24.5421 13.6822 24.5151C13.7224 24.4881 13.7545 24.4507 13.7751 24.4068C13.7956 24.363 13.8039 24.3143 13.7989 24.2661C13.7939 24.218 13.7758 24.172 13.7467 24.1333L8.21338 16.8533C8.18752 16.821 8.15448 16.7951 8.11687 16.7777C8.07926 16.7603 8.03812 16.7519 7.99671 16.7532C7.9553 16.7545 7.91477 16.7655 7.87831 16.7851C7.84186 16.8048 7.8105 16.8327 7.78671 16.8667V16.8667Z" stroke="black" stroke-width="1.5" stroke-linecap="round" stroke-linejoin="round"/>
</svg>
