<svg width="32" height="32" viewBox="0 0 32 32" fill="none" xmlns="http://www.w3.org/2000/svg">
<path fill-rule="evenodd" clip-rule="evenodd" d="M19.9999 17.3333V6.66667C19.9999 5.6058 19.5785 4.58839 18.8283 3.83824C18.0782 3.08809 17.0608 2.66667 15.9999 2.66667C14.9391 2.66667 13.9216 3.08809 13.1715 3.83824C12.4213 4.58839 11.9999 5.6058 11.9999 6.66667V17.3333C10.8805 18.1729 10.0537 19.3433 9.63649 20.6789C9.21929 22.0145 9.23289 23.4474 9.67536 24.7749C10.1178 26.1023 10.9667 27.2568 12.1018 28.0749C13.237 28.8931 14.6007 29.3333 15.9999 29.3333C17.3991 29.3333 18.7629 28.8931 19.898 28.0749C21.0331 27.2568 21.882 26.1023 22.3245 24.7749C22.7669 23.4474 22.7805 22.0145 22.3633 20.6789C21.9461 19.3433 21.1193 18.1729 19.9999 17.3333V17.3333Z" stroke="black" stroke-width="1.5" stroke-linecap="round" stroke-linejoin="round"/>
<path d="M15.9999 25.3333C17.4727 25.3333 18.6666 24.1394 18.6666 22.6667C18.6666 21.1939 17.4727 20 15.9999 20C14.5272 20 13.3333 21.1939 13.3333 22.6667C13.3333 24.1394 14.5272 25.3333 15.9999 25.3333Z" stroke="black" stroke-width="1.5" stroke-linecap="round" stroke-linejoin="round"/>
<path d="M16 12V20" stroke="black" stroke-width="1.5" stroke-linecap="round" stroke-linejoin="round"/>
</svg>
