<svg width="32" height="31" viewBox="0 0 32 31" fill="none" xmlns="http://www.w3.org/2000/svg">
<path d="M32.0002 11.4C32.0002 10.2 31.4002 3 31.4002 3C31.4002 1.8 31.0002 1 30.4002 0.6C30.0002 0 29.2002 -0.4 28.0002 -0.4C28.0002 -0.4 20.8002 -1 19.4002 -1C17.8002 -1 16.6002 -1 14.4002 1.2L1.00025 14.6C0.400245 15.2 -1.19975 17 1.60025 20L11.0002 29.4C13.8002 32.2 15.8002 30.6 16.4002 30C16.8002 29.4 28.8002 17.6 29.8002 16.6C32.0002 14.4 32.0002 13.2 32.0002 11.4ZM19.2002 15.4L23.2002 17.4L21.8002 20L18.2002 17.6H18.0002H17.8002C17.6002 17.6 17.6002 17.8 17.6002 18L18.0002 22.4H14.6002L14.8002 18C14.8002 17.8 14.8002 17.6 14.6002 17.6H14.0002L10.4002 20L8.80025 17.4L13.0002 15.4C13.2002 15.4 13.2002 15.2 13.2002 15C13.2002 14.8 13.0002 14.6 13.0002 14.6L9.00025 12.6L10.4002 10L14.0002 12.4C14.2002 12.6 14.4002 12.6 14.6002 12.4C14.8002 12.4 14.8002 12.2 14.8002 12L14.6002 7.4H17.6002L17.4002 11.8C17.4002 12 17.4002 12.2 17.6002 12.2H18.2002L21.8002 9.8L23.4002 12.4L19.2002 14.4C19.2002 14.6 19.0002 14.8 19.0002 15C19.0002 15.2 19.2002 15.2 19.2002 15.4ZM26.2002 6.8C25.2002 6.8 24.2002 6 24.2002 4.8C24.2002 3.8 25.0002 2.8 26.2002 2.8C27.2002 2.8 28.2002 3.6 28.2002 4.8C28.2002 6 27.4002 6.8 26.2002 6.8Z" fill="#4C934C"/>
</svg>
