<svg width="32" height="32" viewBox="0 0 32 32" fill="none" xmlns="http://www.w3.org/2000/svg">
<g id="sun-cloud">
<g id="Icon/cloud">
<path id="Combined Shape" d="M22.3567 16.2501L21.6166 16.371L21.7075 16.9276L22.2674 16.9948L22.3567 16.2501ZM21.8888 24V24.75V24ZM9.90076 14.1831L9.69941 14.9055L10.2775 15.0666L10.5615 14.538L9.90076 14.1831ZM23.0969 16.1291C22.5212 12.6056 19.4641 9.91666 15.7776 9.91666V11.4167C18.7173 11.4167 21.1574 13.5612 21.6166 16.371L23.0969 16.1291ZM26.5276 20.1111C26.5276 17.7375 24.7456 15.7812 22.4461 15.5054L22.2674 16.9948C23.8221 17.1812 25.0276 18.5059 25.0276 20.1111H26.5276ZM21.8888 24.75C24.4507 24.75 26.5276 22.6731 26.5276 20.1111H25.0276C25.0276 21.8447 23.6223 23.25 21.8888 23.25V24.75ZM15.7776 24.75H21.8888V23.25H15.7776V24.75ZM8.55542 24.75H15.7776V23.25H8.55542V24.75ZM2.80542 19C2.80542 22.1756 5.37978 24.75 8.55542 24.75V23.25C6.20821 23.25 4.30542 21.3472 4.30542 19H2.80542ZM8.55542 13.25C5.37978 13.25 2.80542 15.8244 2.80542 19H4.30542C4.30542 16.6528 6.20821 14.75 8.55542 14.75V13.25ZM10.1021 13.4606C9.60914 13.3232 9.09022 13.25 8.55542 13.25V14.75C8.95281 14.75 9.33629 14.8043 9.69941 14.9055L10.1021 13.4606ZM15.7776 9.91666C12.9481 9.91666 10.4899 11.5014 9.24006 13.8282L10.5615 14.538C11.5604 12.6784 13.5223 11.4167 15.7776 11.4167V9.91666Z" fill="black"/>
</g>
<path id="Oval" d="M24.2026 17.1088C25.1898 16.8124 26.0566 16.2377 26.7119 15.4757C27.5147 14.5422 27.9999 13.3278 27.9999 12C27.9999 9.05447 25.6121 6.66666 22.6666 6.66666C21.3287 6.66666 20.1059 7.15925 19.1697 7.97295C18.3561 8.68006 17.7588 9.62967 17.4905 10.7092" stroke="black" stroke-width="1.5"/>
</g>
</svg>
