<svg width="16" height="30" viewBox="0 0 16 30" fill="none" xmlns="http://www.w3.org/2000/svg">
<path fill-rule="evenodd" clip-rule="evenodd" d="M11.9999 16.3333V5.66667C11.9999 4.6058 11.5785 3.58839 10.8283 2.83824C10.0782 2.08809 9.06078 1.66667 7.99992 1.66667C6.93905 1.66667 5.92164 2.08809 5.17149 2.83824C4.42135 3.58839 3.99992 4.6058 3.99992 5.66667V16.3333C2.88055 17.1729 2.0537 18.3433 1.63649 19.6789C1.21929 21.0145 1.23289 22.4474 1.67536 23.7749C2.11783 25.1023 2.96675 26.2568 4.10185 27.0749C5.23695 27.8931 6.6007 28.3333 7.99992 28.3333C9.39913 28.3333 10.7629 27.8931 11.898 27.0749C13.0331 26.2568 13.882 25.1023 14.3245 23.7749C14.7669 22.4474 14.7805 21.0145 14.3633 19.6789C13.9461 18.3433 13.1193 17.1729 11.9999 16.3333V16.3333Z" stroke="black" stroke-width="1.5" stroke-linecap="round" stroke-linejoin="round"/>
</svg>
