<svg width="28" height="28" viewBox="0 0 28 28" fill="none" xmlns="http://www.w3.org/2000/svg">
<path d="M22.6573 6.05124C22.6007 6.02514 22.556 5.97874 22.532 5.92124C21.8264 4.2408 20.6403 2.80615 19.1224 1.79725C17.6046 0.788359 15.8226 0.250153 14 0.250153C12.1775 0.250153 10.3955 0.788359 8.87762 1.79725C7.35977 2.80615 6.17364 4.2408 5.46803 5.92124C5.44407 5.97875 5.39936 6.02515 5.34278 6.05124C3.8289 6.75199 2.54592 7.86945 1.64402 9.27282C0.742109 10.6762 0.258585 12.3074 0.250032 13.9756C0.237157 18.6931 4.06128 22.6281 8.77441 22.7472C10.3381 22.7908 11.8845 22.411 13.25 21.648V27C13.25 27.1989 13.3291 27.3897 13.4697 27.5303C13.6104 27.671 13.8011 27.75 14 27.75C14.1989 27.75 14.3897 27.671 14.5304 27.5303C14.671 27.3897 14.75 27.1989 14.75 27V21.6475C16.0489 22.3727 17.5122 22.7524 18.9998 22.75C19.075 22.75 19.1505 22.7491 19.226 22.7472C23.9393 22.6279 27.763 18.6927 27.75 13.9752C27.7414 12.3071 27.2578 10.676 26.3559 9.27268C25.454 7.86938 24.1711 6.75198 22.6573 6.05124ZM19.188 21.2476C17.6918 21.2895 16.2197 20.8639 14.9767 20.0301C14.9044 19.9817 14.8286 19.9387 14.75 19.9014V14.4635L20.3355 11.6707C20.5118 11.5808 20.6454 11.4249 20.7073 11.2369C20.7691 11.0489 20.7541 10.8441 20.6656 10.6671C20.577 10.4901 20.4221 10.3553 20.2346 10.292C20.0471 10.2287 19.8422 10.2421 19.6645 10.3292L14.75 12.7865V8.99999C14.75 8.80108 14.671 8.61031 14.5304 8.46966C14.3897 8.32901 14.1989 8.24999 14 8.24999C13.8011 8.24999 13.6104 8.32901 13.4697 8.46966C13.3291 8.61031 13.25 8.80108 13.25 8.99999V15.7865L8.33553 13.3292C8.24735 13.2843 8.15115 13.2572 8.05245 13.2496C7.95376 13.242 7.85454 13.254 7.76051 13.2849C7.66648 13.3158 7.57951 13.3651 7.50459 13.4298C7.42968 13.4945 7.36831 13.5733 7.32403 13.6619C7.27975 13.7504 7.25343 13.8468 7.2466 13.9456C7.23976 14.0443 7.25253 14.1434 7.28418 14.2372C7.31584 14.331 7.36574 14.4176 7.43102 14.492C7.4963 14.5664 7.57566 14.6272 7.66453 14.6707L13.25 17.4635V19.9015C13.1714 19.9387 13.0957 19.9816 13.0234 20.03C11.7805 20.8641 10.3085 21.2897 8.81228 21.2476C7.17563 21.2051 5.60157 20.6098 4.3463 19.5587C3.09103 18.5077 2.22848 17.0627 1.89903 15.459C1.56958 13.8552 1.79263 12.1872 2.53189 10.7264C3.27115 9.26563 4.48308 8.09805 5.97041 7.41374C6.36781 7.23101 6.6821 6.9057 6.85103 6.50224C7.44225 5.09418 8.43611 3.89207 9.70793 3.0467C10.9798 2.20134 12.4729 1.75037 14 1.75037C15.5272 1.75037 17.0203 2.20134 18.2921 3.0467C19.564 3.89207 20.5578 5.09418 21.149 6.50224C21.318 6.90567 21.6322 7.23097 22.0295 7.41374C23.5169 8.098 24.7289 9.26554 25.4682 10.7263C26.2075 12.1871 26.4306 13.8551 26.1012 15.4589C25.7718 17.0626 24.9093 18.5077 23.654 19.5588C22.3988 20.6099 20.8247 21.2052 19.188 21.2477V21.2476Z" fill="black"/>
</svg>
