<svg width="32" height="32" viewBox="0 0 32 32" fill="none" xmlns="http://www.w3.org/2000/svg">
<path d="M20.01 31.536L12 26.4505V0.549857L20 6.94959L20.01 31.536ZM22.01 31.4971L31.514 24.9808C31.6622 24.8793 31.7849 24.7356 31.8701 24.5638C31.9553 24.3919 32 24.1978 32 24.0003V1.14412C32.0002 0.934891 31.9502 0.729613 31.8553 0.550663C31.7604 0.371713 31.6244 0.225959 31.462 0.129291C31.2997 0.0326224 31.1172 -0.0112506 30.9345 0.00245486C30.7518 0.0161603 30.5759 0.0869177 30.426 0.207014L22 6.94959L22.01 31.4971ZM0.426001 8.20668L10 0.549857V26.4505L1.486 31.856C1.33378 31.9527 1.16209 32.0023 0.987922 31.9999C0.813758 31.9975 0.643165 31.9432 0.493031 31.8422C0.342898 31.7413 0.218431 31.5974 0.131955 31.4246C0.0454795 31.2518 -6.51978e-06 31.0562 6.54776e-07 30.8571V9.14378C-0.000183416 8.95994 0.0384446 8.77876 0.112606 8.61562C0.186768 8.45248 0.294274 8.3122 0.426001 8.20668Z" fill="#4C934C"/>
</svg>
